<?xml version="1.0" encoding="UTF-8" standalone="no"?>
<!DOCTYPE svg PUBLIC "-//W3C//DTD SVG 1.1//EN" "http://www.w3.org/Graphics/SVG/1.1/DTD/svg11.dtd">
<!-- Generated by Microsoft Visio, SVG Export DTANet.svg Page-1 -->
<svg xmlns="http://www.w3.org/2000/svg" xmlns:xlink="http://www.w3.org/1999/xlink" xmlns:ev="http://www.w3.org/2001/xml-events"
		xmlns:v="http://schemas.microsoft.com/visio/2003/SVGExtensions/" width="5.36252in" height="8.65648in"
		viewBox="0 0 386.101 623.267" xml:space="preserve" color-interpolation-filters="sRGB" class="st29">
	<v:documentProperties v:langID="1033" v:metric="true" v:viewMarkup="false">
		<v:userDefs>
			<v:ud v:nameU="msvNoAutoConnect" v:val="VT0(1):26"/>
		</v:userDefs>
	</v:documentProperties>

	<style type="text/css">
	<![CDATA[
		.st1 {fill:#ffffff;stroke:#000000;stroke-linecap:round;stroke-linejoin:round;stroke-width:0.24}
		.st2 {fill:#000000;font-family:Calibri;font-size:1.5em}
		.st3 {fill:#ffffff;stroke:#000000;stroke-linecap:round;stroke-linejoin:round;stroke-width:0.5}
		.st4 {fill:#000000;font-family:Calibri;font-size:0.833336em}
		.st5 {fill:#dbeef3;stroke:#31859b;stroke-linecap:round;stroke-linejoin:round;stroke-width:0.24}
		.st6 {fill:#000000}
		.st7 {stroke:#000000;stroke-linecap:round;stroke-linejoin:round;stroke-width:0.2376}
		.st8 {fill:none;stroke:none;stroke-linecap:round;stroke-linejoin:round;stroke-width:0.75}
		.st9 {fill:#000000;font-family:Calibri;font-size:1.00001em}
		.st10 {fill:#ebf1df;stroke:#789440;stroke-linecap:round;stroke-linejoin:round;stroke-width:0.24}
		.st11 {font-size:1em}
		.st12 {fill:#fcebdd;stroke:#ea700d;stroke-linecap:round;stroke-linejoin:round;stroke-width:0.24}
		.st13 {fill:#000000;fill-opacity:1;stroke:#000000;stroke-opacity:1;stroke-width:0.16556291390728}
		.st14 {marker-end:url(#mrkr5-51);stroke:#000000;stroke-linecap:round;stroke-linejoin:round;stroke-width:0.239976}
		.st15 {fill:#000000;fill-opacity:1;stroke:#000000;stroke-opacity:1;stroke-width:0.086948582161584}
		.st16 {fill:#f2f2f2;stroke:#000000;stroke-linecap:round;stroke-linejoin:round;stroke-width:0.24}
		.st17 {fill:#000000;font-family:Calibri;font-size:1.16666em;font-weight:bold}
		.st18 {fill:#7f7f7f;stroke:#000000;stroke-linecap:round;stroke-linejoin:round;stroke-width:0.24}
		.st19 {fill:#000000;font-family:Calibri;font-size:0.666664em}
		.st20 {fill:#e5b9b5;stroke:#923931;stroke-linecap:round;stroke-linejoin:round;stroke-width:0.24}
		.st21 {fill:#000000;font-family:Calibri;font-size:0.499992em}
		.st22 {fill:#b7dde8;stroke:#31859b;stroke-linecap:round;stroke-linejoin:round;stroke-width:0.24}
		.st23 {fill:#fee599;stroke:#bf9000;stroke-linecap:round;stroke-linejoin:round;stroke-width:0.24}
		.st24 {fill:#ddd6e5;stroke:#7e649e;stroke-linecap:round;stroke-linejoin:round;stroke-width:0.24}
		.st25 {fill:#92d050;stroke:#00b050;stroke-linecap:round;stroke-linejoin:round;stroke-width:0.24}
		.st26 {stroke:#000000;stroke-linecap:round;stroke-linejoin:round;stroke-width:0.239976}
		.st27 {fill:#000000;font-family:Bell MT;font-size:0.666664em;font-weight:bold}
		.st28 {stroke:#000000;stroke-linecap:round;stroke-linejoin:round;stroke-width:1}
		.st29 {fill:none;fill-rule:evenodd;font-size:12px;overflow:visible;stroke-linecap:square;stroke-miterlimit:3}
	]]>
	</style>

	<defs id="Markers">
		<g id="lend5">
			<path d="M 2 1 L 0 0 L 1.98117 -0.993387 C 1.67173 -0.364515 1.67301 0.372641 1.98465 1.00043 " style="stroke:none"/>
		</g>
		<marker id="mrkr5-39" class="st13" v:arrowType="5" v:arrowSize="2" v:setback="10.57" refX="-10.57" orient="auto"
				markerUnits="strokeWidth" overflow="visible">
			<use xlink:href="#lend5" transform="scale(-6.04,-6.04) "/>
		</marker>
		<marker id="mrkr5-51" class="st15" v:arrowType="5" v:arrowSize="2" v:setback="20.1268" refX="-20.126837683768"
				orient="auto" markerUnits="strokeWidth" overflow="visible">
			<use xlink:href="#lend5" transform="scale(-11.501050105011,-11.501050105011) "/>
		</marker>
	</defs>
	<g v:mID="0" v:index="1" v:groupContext="foregroundPage">
		<title>Page-1</title>
		<v:pageProperties v:drawingScale="0.0393701" v:pageScale="0.0393701" v:drawingUnits="24" v:shadowOffsetX="8.50394"
				v:shadowOffsetY="-8.50394"/>
		<v:layer v:name="Connector" v:index="0"/>
		<v:layer v:name="Common Icons" v:index="1"/>
		<g id="shape1-1" v:mID="1" v:groupContext="shape" transform="translate(158.435,-565.462)">
			<title>Circle</title>
			<desc>y</desc>
			<v:userDefs>
				<v:ud v:nameU="visVersion" v:val="VT0(15):26"/>
			</v:userDefs>
			<v:textBlock v:margins="rect(4,4,4,4)" v:tabSpace="42.5197"/>
			<v:textRect cx="19.8425" cy="603.424" width="34.73" height="29.7638"/>
			<path d="M0 603.42 A19.8425 19.8425 0 0 1 39.69 603.42 A19.8425 19.8425 0 1 1 0 603.42 Z" class="st1"/>
			<text x="15.77" y="608.82" class="st2" v:langID="1033"><v:paragraph v:horizAlign="1"/><v:tabList/>y</text>		</g>
		<g id="shape2-4" v:mID="2" v:groupContext="shape" transform="translate(121.585,-460.58)">
			<title>Rounded Rectangle</title>
			<v:userDefs>
				<v:ud v:nameU="CTypeTopLeftSnip" v:prompt="" v:val="VT0(0):5"/>
				<v:ud v:nameU="CTypeTopRightSnip" v:prompt="" v:val="VT0(0):5"/>
				<v:ud v:nameU="CTypeBotLeftSnip" v:prompt="" v:val="VT0(0):5"/>
				<v:ud v:nameU="CTypeBotRightSnip" v:prompt="" v:val="VT0(0):5"/>
				<v:ud v:nameU="CornerLockHoriz" v:prompt="" v:val="VT0(1):5"/>
				<v:ud v:nameU="CornerLockVert" v:prompt="" v:val="VT0(1):5"/>
				<v:ud v:nameU="CornerLockDiag" v:prompt="" v:val="VT0(0):5"/>
				<v:ud v:nameU="TopLeftOffset" v:prompt="" v:val="VT0(0.15748031496063):24"/>
				<v:ud v:nameU="TopRightOffset" v:prompt="" v:val="VT0(0.15748031496063):24"/>
				<v:ud v:nameU="BotLeftOffset" v:prompt="" v:val="VT0(0.15748031496063):24"/>
				<v:ud v:nameU="BotRightOffset" v:prompt="" v:val="VT0(0.15748031496063):24"/>
				<v:ud v:nameU="visVersion" v:prompt="" v:val="VT0(15):26"/>
			</v:userDefs>
			<path d="M11.34 623.27 L102.05 623.27 A11.3384 11.3384 -180 0 0 113.39 611.93 L113.39 550.98 A11.3384 11.3384 -180 0
						 0 102.05 539.64 L11.34 539.64 A11.3384 11.3384 -180 0 0 -0 550.98 L0 611.93 A11.3384 11.3384 -180 0 0 11.34
						 623.27 Z" class="st3"/>
		</g>
		<g id="shape11-6" v:mID="11" v:groupContext="shape" transform="translate(135.758,-507.351)">
			<title>Rectangle</title>
			<desc>FC Layer 1</desc>
			<v:userDefs>
				<v:ud v:nameU="visVersion" v:val="VT0(15):26"/>
			</v:userDefs>
			<v:textBlock v:margins="rect(4,4,4,4)" v:tabSpace="42.5197"/>
			<v:textRect cx="42.5197" cy="612.141" width="85.04" height="22.252"/>
			<rect x="0" y="601.015" width="85.0394" height="22.252" class="st1"/>
			<text x="21.77" y="615.14" class="st4" v:langID="1033"><v:paragraph v:horizAlign="1"/><v:tabList/>FC Layer 1</text>		</g>
		<g id="shape12-9" v:mID="12" v:groupContext="shape" transform="translate(135.758,-470.926)">
			<title>Rectangle.12</title>
			<desc>FC Layer 2</desc>
			<v:userDefs>
				<v:ud v:nameU="visVersion" v:val="VT0(15):26"/>
			</v:userDefs>
			<v:textBlock v:margins="rect(4,4,4,4)" v:tabSpace="42.5197"/>
			<v:textRect cx="42.5197" cy="612.141" width="85.04" height="22.252"/>
			<rect x="0" y="601.015" width="85.0394" height="22.252" class="st1"/>
			<text x="21.77" y="615.14" class="st4" v:langID="1033"><v:paragraph v:horizAlign="1"/><v:tabList/>FC Layer 2</text>		</g>
		<g id="shape17-12" v:mID="17" v:groupContext="shape" transform="translate(18.12,-398.643)">
			<title>Rectangle.17</title>
			<desc>Combined representation</desc>
			<v:userDefs>
				<v:ud v:nameU="visVersion" v:val="VT0(15):26"/>
			</v:userDefs>
			<v:textBlock v:margins="rect(4,4,4,4)" v:tabSpace="42.5197"/>
			<v:textRect cx="160.157" cy="612.141" width="320.32" height="22.252"/>
			<rect x="0" y="601.015" width="320.315" height="22.252" class="st5"/>
			<text x="107.9" y="615.14" class="st4" v:langID="1033"><v:paragraph v:horizAlign="1"/><v:tabList/>Combined representation</text>		</g>
		<g id="shape26-15" v:mID="26" v:groupContext="shape" transform="translate(-444.989,79.0649) rotate(-90)">
			<title>Line Arrow.26</title>
			<v:userDefs>
				<v:ud v:nameU="Scale" v:val="VT0(1):26"/>
				<v:ud v:nameU="AntiScale" v:val="VT0(1):26"/>
				<v:ud v:nameU="visVersion" v:val="VT0(17):26"/>
			</v:userDefs>
			<path d="M14.87 620.07 L14.87 626.46 L21.26 623.27 L14.87 620.07 Z" class="st6"/>
			<path d="M14.87 620.07 L14.87 626.46 L21.26 623.27 L14.87 620.07" class="st7"/>
			<path d="M0 623.27 L14.87 623.27" class="st7"/>
		</g>
		<g id="shape28-19" v:mID="28" v:groupContext="shape" transform="translate(801.544,178.277) rotate(90)">
			<title>Modern Arrow</title>
			<v:userDefs>
				<v:ud v:nameU="CtrlAngle" v:prompt="" v:val="VT0(0.78539816339745):32"/>
				<v:ud v:nameU="visVersion" v:prompt="" v:val="VT0(15):26"/>
				<v:ud v:nameU="CtrlAngle" v:prompt="" v:val="VT0(0.78539892539807):32"/>
			</v:userDefs>
			<path d="M0 623.27 L8.5 614.76 L10.51 616.77 L5.43 621.85 L22.63 621.85 L22.63 624.68 L5.43 624.68 L10.51 629.77 L8.5
						 631.77 L0 623.27 Z" class="st5"/>
		</g>
		<g id="shape30-21" v:mID="30" v:groupContext="shape" transform="translate(203.081,-578.218)">
			<title>Sheet.30</title>
			<desc>output</desc>
			<v:textBlock v:margins="rect(4,4,4,4)" v:tabSpace="42.5197"/>
			<v:textRect cx="21.9685" cy="616.18" width="43.94" height="14.1732"/>
			<rect x="0" y="609.093" width="43.937" height="14.1732" class="st8"/>
			<text x="5.33" y="619.78" class="st9" v:langID="1033"><v:paragraph v:horizAlign="1"/><v:tabList/>output</text>		</g>
		<g id="shape31-24" v:mID="31" v:groupContext="shape" transform="translate(711.018,225.049) rotate(90)">
			<title>Modern Arrow.31</title>
			<v:userDefs>
				<v:ud v:nameU="CtrlAngle" v:prompt="" v:val="VT0(0.78539816339745):32"/>
				<v:ud v:nameU="visVersion" v:prompt="" v:val="VT0(15):26"/>
				<v:ud v:nameU="CtrlAngle" v:prompt="" v:val="VT0(0.78539892539807):32"/>
			</v:userDefs>
			<path d="M0 623.27 L8.5 614.76 L10.51 616.77 L5.43 621.85 L20.49 621.85 L20.49 624.68 L5.43 624.68 L10.51 629.77 L8.5
						 631.77 L0 623.27 Z" class="st10"/>
		</g>
		<g id="shape34-26" v:mID="34" v:groupContext="shape" transform="translate(34.8856,-346.769)">
			<title>Rectangle.34</title>
			<desc>Graph-based SMILES representation</desc>
			<v:userDefs>
				<v:ud v:nameU="visVersion" v:val="VT0(15):26"/>
			</v:userDefs>
			<v:textBlock v:margins="rect(4,4,4,4)" v:tabSpace="42.5197"/>
			<v:textRect cx="51.9449" cy="608.172" width="103.89" height="30.189"/>
			<rect x="0" y="593.078" width="103.89" height="30.189" class="st10"/>
			<text x="9.97" y="605.17" class="st4" v:langID="1033"><v:paragraph v:horizAlign="1"/><v:tabList/>Graph-based SMILES <tspan
						x="21.63" dy="1.2em" class="st11">representation</tspan></text>		</g>
		<g id="shape37-30" v:mID="37" v:groupContext="shape" transform="translate(894.166,225.049) rotate(90)">
			<title>Modern Arrow.37</title>
			<v:userDefs>
				<v:ud v:nameU="CtrlAngle" v:prompt="" v:val="VT0(0.78539816339745):32"/>
				<v:ud v:nameU="visVersion" v:prompt="" v:val="VT0(15):26"/>
				<v:ud v:nameU="CtrlAngle" v:prompt="" v:val="VT0(0.78539892539807):32"/>
			</v:userDefs>
			<path d="M0 623.27 L8.5 614.76 L10.51 616.77 L5.43 621.85 L20.43 621.85 L20.43 624.68 L5.43 624.68 L10.51 629.77 L8.5
						 631.77 L0 623.27 Z" class="st12"/>
		</g>
		<g id="shape38-32" v:mID="38" v:groupContext="shape" transform="translate(218.955,-346.769)">
			<title>Rectangle.38</title>
			<desc>Protein sequence representation</desc>
			<v:userDefs>
				<v:ud v:nameU="visVersion" v:val="VT0(15):26"/>
			</v:userDefs>
			<v:textBlock v:margins="rect(4,4,4,4)" v:tabSpace="42.5197"/>
			<v:textRect cx="51.9449" cy="608.172" width="103.89" height="30.189"/>
			<rect x="0" y="593.078" width="103.89" height="30.189" class="st12"/>
			<text x="16.5" y="605.17" class="st4" v:langID="1033"><v:paragraph v:horizAlign="1"/><v:tabList/>Protein sequence <tspan
						x="21.63" dy="1.2em" class="st11">representation</tspan></text>		</g>
		<g id="shape39-36" v:mID="39" v:groupContext="shape" transform="translate(215.128,-222.044)">
			<title>Rounded Rectangle.39</title>
			<v:userDefs>
				<v:ud v:nameU="CTypeTopLeftSnip" v:prompt="" v:val="VT0(0):5"/>
				<v:ud v:nameU="CTypeTopRightSnip" v:prompt="" v:val="VT0(0):5"/>
				<v:ud v:nameU="CTypeBotLeftSnip" v:prompt="" v:val="VT0(0):5"/>
				<v:ud v:nameU="CTypeBotRightSnip" v:prompt="" v:val="VT0(0):5"/>
				<v:ud v:nameU="CornerLockHoriz" v:prompt="" v:val="VT0(1):5"/>
				<v:ud v:nameU="CornerLockVert" v:prompt="" v:val="VT0(1):5"/>
				<v:ud v:nameU="CornerLockDiag" v:prompt="" v:val="VT0(0):5"/>
				<v:ud v:nameU="TopLeftOffset" v:prompt="" v:val="VT0(0.15748031496063):24"/>
				<v:ud v:nameU="TopRightOffset" v:prompt="" v:val="VT0(0.15748031496063):24"/>
				<v:ud v:nameU="BotLeftOffset" v:prompt="" v:val="VT0(0.15748031496063):24"/>
				<v:ud v:nameU="BotRightOffset" v:prompt="" v:val="VT0(0.15748031496063):24"/>
				<v:ud v:nameU="visVersion" v:prompt="" v:val="VT0(15):26"/>
				<v:ud v:nameU="TopLeftOffset" v:prompt="" v:val="VT0(0.15748031351104):1"/>
				<v:ud v:nameU="TopRightOffset" v:prompt="" v:val="VT0(0.15748031351104):1"/>
				<v:ud v:nameU="BotLeftOffset" v:prompt="" v:val="VT0(0.15748031351104):1"/>
				<v:ud v:nameU="BotRightOffset" v:prompt="" v:val="VT0(0.15748031351104):1"/>
			</v:userDefs>
			<path d="M11.34 623.27 L102.05 623.27 A11.3384 11.3384 -180 0 0 113.39 611.93 L113.39 531.14 A11.3384 11.3384 -180 0
						 0 102.05 519.8 L11.34 519.8 A11.3384 11.3384 -180 0 0 0 531.14 L0 611.93 A11.3384 11.3384 -180 0 0 11.34
						 623.27 Z" class="st3"/>
		</g>
		<g id="shape40-40" v:mID="40" v:groupContext="shape" transform="translate(222.214,-306.092)">
			<title>Rectangle.40</title>
			<desc>Max pooling</desc>
			<v:userDefs>
				<v:ud v:nameU="visVersion" v:val="VT0(15):26"/>
			</v:userDefs>
			<v:textBlock v:margins="rect(4,4,4,4)" v:tabSpace="42.5197"/>
			<v:textRect cx="49.6063" cy="616.18" width="99.22" height="14.1732"/>
			<rect x="0" y="609.093" width="99.2126" height="14.1732" class="st1"/>
			<text x="24.46" y="619.18" class="st4" v:langID="1033"><v:paragraph v:horizAlign="1"/><v:tabList/>Max pooling</text>		</g>
		<g id="shape41-43" v:mID="41" v:groupContext="shape" transform="translate(222.214,-280.155)">
			<title>Rectangle.41</title>
			<desc>Convolutional layer 3</desc>
			<v:userDefs>
				<v:ud v:nameU="visVersion" v:val="VT0(15):26"/>
			</v:userDefs>
			<v:textBlock v:margins="rect(4,4,4,4)" v:tabSpace="42.5197"/>
			<v:textRect cx="49.6063" cy="616.18" width="99.22" height="14.1732"/>
			<rect x="0" y="609.093" width="99.2126" height="14.1732" class="st1"/>
			<text x="6.55" y="619.18" class="st4" v:langID="1033"><v:paragraph v:horizAlign="1"/><v:tabList/>Convolutional layer 3</text>		</g>
		<g id="shape45-46" v:mID="45" v:groupContext="shape" v:layerMember="0" transform="translate(264.734,-293.123)">
			<title>Dynamic connector</title>
			<path d="M7.09 622.06 L7.09 615.13" class="st14"/>
		</g>
		<g id="shape46-52" v:mID="46" v:groupContext="shape" v:layerMember="0" transform="translate(171.191,-493.178)">
			<title>Dynamic connector.46</title>
			<path d="M7.09 623.27 L7.09 613.92" class="st14"/>
		</g>
		<g id="shape60-57" v:mID="60" v:groupContext="shape" transform="translate(222.214,-254.643)">
			<title>Rectangle.60</title>
			<desc>Convolutional layer 2</desc>
			<v:userDefs>
				<v:ud v:nameU="visVersion" v:val="VT0(15):26"/>
			</v:userDefs>
			<v:textBlock v:margins="rect(4,4,4,4)" v:tabSpace="42.5197"/>
			<v:textRect cx="49.6063" cy="616.18" width="99.22" height="14.1732"/>
			<rect x="0" y="609.093" width="99.2126" height="14.1732" class="st1"/>
			<text x="6.55" y="619.18" class="st4" v:langID="1033"><v:paragraph v:horizAlign="1"/><v:tabList/>Convolutional layer 2</text>		</g>
		<g id="shape61-60" v:mID="61" v:groupContext="shape" transform="translate(222.214,-229.131)">
			<title>Rectangle.61</title>
			<desc>Convolutional layer 1</desc>
			<v:userDefs>
				<v:ud v:nameU="visVersion" v:val="VT0(15):26"/>
			</v:userDefs>
			<v:textBlock v:margins="rect(4,4,4,4)" v:tabSpace="42.5197"/>
			<v:textRect cx="49.6063" cy="616.18" width="99.22" height="14.1732"/>
			<rect x="0" y="609.093" width="99.2126" height="14.1732" class="st1"/>
			<text x="6.55" y="619.18" class="st4" v:langID="1033"><v:paragraph v:horizAlign="1"/><v:tabList/>Convolutional layer 1</text>		</g>
		<g id="shape62-63" v:mID="62" v:groupContext="shape" v:layerMember="0" transform="translate(264.734,-241.887)">
			<title>Dynamic connector.62</title>
			<path d="M7.09 621.85 L7.09 615.34" class="st14"/>
		</g>
		<g id="shape66-68" v:mID="66" v:groupContext="shape" v:layerMember="0" transform="translate(264.734,-267.399)">
			<title>Dynamic connector.66</title>
			<path d="M7.09 621.85 L7.09 615.34" class="st14"/>
		</g>
		<g id="shape76-73" v:mID="76" v:groupContext="shape" transform="translate(894.163,278.575) rotate(90.1909)">
			<title>Modern Arrow.73</title>
			<v:userDefs>
				<v:ud v:nameU="CtrlAngle" v:prompt="" v:val="VT0(0.78539816339745):32"/>
				<v:ud v:nameU="visVersion" v:prompt="" v:val="VT0(15):26"/>
				<v:ud v:nameU="CtrlAngle" v:prompt="" v:val="VT0(0.78539892539807):32"/>
			</v:userDefs>
			<path d="M0 623.27 L8.5 614.76 L10.51 616.77 L5.43 621.85 L20.48 621.85 L20.48 624.68 L5.43 624.68 L10.51 629.77 L8.5
						 631.77 L0 623.27 Z" class="st16"/>
		</g>
		<g id="shape78-75" v:mID="78" v:groupContext="shape" transform="translate(31.0588,-152.595)">
			<title>Rounded Rectangle.78</title>
			<v:userDefs>
				<v:ud v:nameU="CTypeTopLeftSnip" v:prompt="" v:val="VT0(0):5"/>
				<v:ud v:nameU="CTypeTopRightSnip" v:prompt="" v:val="VT0(0):5"/>
				<v:ud v:nameU="CTypeBotLeftSnip" v:prompt="" v:val="VT0(0):5"/>
				<v:ud v:nameU="CTypeBotRightSnip" v:prompt="" v:val="VT0(0):5"/>
				<v:ud v:nameU="CornerLockHoriz" v:prompt="" v:val="VT0(1):5"/>
				<v:ud v:nameU="CornerLockVert" v:prompt="" v:val="VT0(1):5"/>
				<v:ud v:nameU="CornerLockDiag" v:prompt="" v:val="VT0(0):5"/>
				<v:ud v:nameU="TopLeftOffset" v:prompt="" v:val="VT0(0.15748031496063):24"/>
				<v:ud v:nameU="TopRightOffset" v:prompt="" v:val="VT0(0.15748031496063):24"/>
				<v:ud v:nameU="BotLeftOffset" v:prompt="" v:val="VT0(0.15748031496063):24"/>
				<v:ud v:nameU="BotRightOffset" v:prompt="" v:val="VT0(0.15748031496063):24"/>
				<v:ud v:nameU="visVersion" v:prompt="" v:val="VT0(15):26"/>
				<v:ud v:nameU="TopLeftOffset" v:prompt="" v:val="VT0(0.15748031351104):1"/>
				<v:ud v:nameU="TopRightOffset" v:prompt="" v:val="VT0(0.15748031351104):1"/>
				<v:ud v:nameU="BotLeftOffset" v:prompt="" v:val="VT0(0.15748031351104):1"/>
				<v:ud v:nameU="BotRightOffset" v:prompt="" v:val="VT0(0.15748031351104):1"/>
			</v:userDefs>
			<path d="M11.34 623.27 L102.05 623.27 A11.3384 11.3384 -180 0 0 113.39 611.93 L113.39 460.27 A11.3384 11.3384 -180 0
						 0 102.05 448.94 L11.34 448.94 A11.3384 11.3384 -180 0 0 0 460.27 L0 611.93 A11.3384 11.3384 -180 0 0 11.34
						 623.27 Z" class="st3"/>
		</g>
		<g id="shape79-78" v:mID="79" v:groupContext="shape" transform="translate(38.1454,-307.509)">
			<title>Rectangle.79</title>
			<desc>KAN Linear layer</desc>
			<v:userDefs>
				<v:ud v:nameU="visVersion" v:val="VT0(15):26"/>
			</v:userDefs>
			<v:textBlock v:margins="rect(4,4,4,4)" v:tabSpace="42.5197"/>
			<v:textRect cx="49.6063" cy="616.18" width="99.22" height="14.1732"/>
			<rect x="0" y="609.093" width="99.2126" height="14.1732" class="st1"/>
			<text x="16.09" y="619.18" class="st4" v:langID="1033"><v:paragraph v:horizAlign="1"/><v:tabList/>KAN Linear layer</text>		</g>
		<g id="shape80-81" v:mID="80" v:groupContext="shape" transform="translate(38.1454,-281.572)">
			<title>Rectangle.80</title>
			<desc>Normalization Layer 3</desc>
			<v:userDefs>
				<v:ud v:nameU="visVersion" v:val="VT0(15):26"/>
			</v:userDefs>
			<v:textBlock v:margins="rect(4,4,4,4)" v:tabSpace="42.5197"/>
			<v:textRect cx="49.6063" cy="616.18" width="99.22" height="14.1732"/>
			<rect x="0" y="609.093" width="99.2126" height="14.1732" class="st1"/>
			<text x="5.07" y="619.18" class="st4" v:langID="1033"><v:paragraph v:horizAlign="1"/><v:tabList/>Normalization Layer 3</text>		</g>
		<g id="shape81-84" v:mID="81" v:groupContext="shape" v:layerMember="0" transform="translate(80.6651,-294.54)">
			<title>Dynamic connector.81</title>
			<path d="M7.09 622.06 L7.09 615.13" class="st14"/>
		</g>
		<g id="shape82-89" v:mID="82" v:groupContext="shape" transform="translate(38.1454,-256.06)">
			<title>Rectangle.82</title>
			<desc>kanChebConv layer 3</desc>
			<v:userDefs>
				<v:ud v:nameU="visVersion" v:val="VT0(15):26"/>
			</v:userDefs>
			<v:textBlock v:margins="rect(4,4,4,4)" v:tabSpace="42.5197"/>
			<v:textRect cx="49.6063" cy="616.18" width="99.22" height="14.1732"/>
			<rect x="0" y="609.093" width="99.2126" height="14.1732" class="st1"/>
			<text x="6.88" y="619.18" class="st4" v:langID="1033"><v:paragraph v:horizAlign="1"/><v:tabList/>kanChebConv layer 3</text>		</g>
		<g id="shape83-92" v:mID="83" v:groupContext="shape" transform="translate(38.1454,-230.548)">
			<title>Rectangle.83</title>
			<desc>Normalization Layer 2</desc>
			<v:userDefs>
				<v:ud v:nameU="visVersion" v:val="VT0(15):26"/>
			</v:userDefs>
			<v:textBlock v:margins="rect(4,4,4,4)" v:tabSpace="42.5197"/>
			<v:textRect cx="49.6063" cy="616.18" width="99.22" height="14.1732"/>
			<rect x="0" y="609.093" width="99.2126" height="14.1732" class="st1"/>
			<text x="5.07" y="619.18" class="st4" v:langID="1033"><v:paragraph v:horizAlign="1"/><v:tabList/>Normalization Layer 2</text>		</g>
		<g id="shape84-95" v:mID="84" v:groupContext="shape" v:layerMember="0" transform="translate(80.6651,-243.304)">
			<title>Dynamic connector.84</title>
			<path d="M7.09 621.85 L7.09 615.34" class="st14"/>
		</g>
		<g id="shape85-100" v:mID="85" v:groupContext="shape" v:layerMember="0" transform="translate(80.6651,-268.816)">
			<title>Dynamic connector.85</title>
			<path d="M7.09 621.85 L7.09 615.34" class="st14"/>
		</g>
		<g id="shape86-105" v:mID="86" v:groupContext="shape" transform="translate(710.097,276.498) rotate(90)">
			<title>Modern Arrow.86</title>
			<v:userDefs>
				<v:ud v:nameU="CtrlAngle" v:prompt="" v:val="VT0(0.78539816339745):32"/>
				<v:ud v:nameU="visVersion" v:prompt="" v:val="VT0(15):26"/>
				<v:ud v:nameU="CtrlAngle" v:prompt="" v:val="VT0(0.78539892539807):32"/>
			</v:userDefs>
			<path d="M0 623.27 L8.5 614.76 L10.51 616.77 L5.43 621.85 L19.06 621.85 L19.06 624.68 L5.43 624.68 L10.51 629.77 L8.5
						 631.77 L0 623.27 Z" class="st16"/>
		</g>
		<g id="shape89-107" v:mID="89" v:groupContext="shape" transform="translate(38.1454,-206.454)">
			<title>Rectangle.89</title>
			<desc>kanChebConv layer 2</desc>
			<v:userDefs>
				<v:ud v:nameU="visVersion" v:val="VT0(15):26"/>
			</v:userDefs>
			<v:textBlock v:margins="rect(4,4,4,4)" v:tabSpace="42.5197"/>
			<v:textRect cx="49.6063" cy="616.18" width="99.22" height="14.1732"/>
			<rect x="0" y="609.093" width="99.2126" height="14.1732" class="st1"/>
			<text x="6.88" y="619.18" class="st4" v:langID="1033"><v:paragraph v:horizAlign="1"/><v:tabList/>kanChebConv layer 2</text>		</g>
		<g id="shape90-110" v:mID="90" v:groupContext="shape" transform="translate(38.1454,-183.009)">
			<title>Rectangle.90</title>
			<desc>Normalization Layer 1</desc>
			<v:userDefs>
				<v:ud v:nameU="visVersion" v:val="VT0(15):26"/>
			</v:userDefs>
			<v:textBlock v:margins="rect(4,4,4,4)" v:tabSpace="42.5197"/>
			<v:textRect cx="49.6063" cy="616.18" width="99.22" height="14.1732"/>
			<rect x="0" y="609.093" width="99.2126" height="14.1732" class="st1"/>
			<text x="5.07" y="619.18" class="st4" v:langID="1033"><v:paragraph v:horizAlign="1"/><v:tabList/>Normalization Layer 1</text>		</g>
		<g id="shape91-113" v:mID="91" v:groupContext="shape" transform="translate(38.1454,-159.682)">
			<title>Rectangle.91</title>
			<desc>kanChebConv layer 1</desc>
			<v:userDefs>
				<v:ud v:nameU="visVersion" v:val="VT0(15):26"/>
			</v:userDefs>
			<v:textBlock v:margins="rect(4,4,4,4)" v:tabSpace="42.5197"/>
			<v:textRect cx="49.6063" cy="616.18" width="99.22" height="14.1732"/>
			<rect x="0" y="609.093" width="99.2126" height="14.1732" class="st1"/>
			<text x="6.88" y="619.18" class="st4" v:langID="1033"><v:paragraph v:horizAlign="1"/><v:tabList/>kanChebConv layer 1</text>		</g>
		<g id="shape92-116" v:mID="92" v:groupContext="shape" v:layerMember="0" transform="translate(94.8383,-218.501)">
			<title>Dynamic connector.92</title>
			<path d="M-7.09 621.14 L-7.09 616.05" class="st14"/>
		</g>
		<g id="shape93-121" v:mID="93" v:groupContext="shape" v:layerMember="0" transform="translate(80.6651,-194.731)">
			<title>Dynamic connector.93</title>
			<path d="M7.09 620.82 L7.09 616.37" class="st14"/>
		</g>
		<g id="shape94-126" v:mID="94" v:groupContext="shape" v:layerMember="0" transform="translate(80.6651,-171.345)">
			<title>Dynamic connector.94</title>
			<path d="M7.09 620.76 L7.09 616.43" class="st14"/>
		</g>
		<g id="shape97-131" v:mID="97" v:groupContext="shape" transform="translate(155.6,-443.572)">
			<title>Sheet.97</title>
			<desc>MLP</desc>
			<v:textBlock v:margins="rect(4,4,4,4)" v:tabSpace="42.5197"/>
			<v:textRect cx="22.6772" cy="614.763" width="45.36" height="17.0079"/>
			<rect x="0" y="606.259" width="45.3543" height="17.0079" class="st8"/>
			<text x="9.87" y="618.96" class="st17" v:langID="1033"><v:paragraph v:horizAlign="1"/><v:tabList/>MLP</text>		</g>
		<g id="shape100-134" v:mID="100" v:groupContext="shape" transform="translate(50.9013,-134.595)">
			<title>Sheet.100</title>
			<desc>GraphKAN</desc>
			<v:textBlock v:margins="rect(4,4,4,4)" v:tabSpace="42.5197"/>
			<v:textRect cx="36.8504" cy="614.763" width="73.71" height="17.0079"/>
			<rect x="0" y="606.259" width="73.7008" height="17.0079" class="st8"/>
			<text x="6.25" y="618.96" class="st17" v:langID="1033"><v:paragraph v:horizAlign="1"/><v:tabList/>GraphKAN</text>		</g>
		<g id="shape101-137" v:mID="101" v:groupContext="shape" transform="translate(237.805,-205.462)">
			<title>Sheet.101</title>
			<desc>CNN</desc>
			<v:textBlock v:margins="rect(4,4,4,4)" v:tabSpace="42.5197"/>
			<v:textRect cx="36.8504" cy="614.763" width="73.71" height="17.0079"/>
			<rect x="0" y="606.259" width="73.7008" height="17.0079" class="st8"/>
			<text x="23.92" y="618.96" class="st17" v:langID="1033"><v:paragraph v:horizAlign="1"/><v:tabList/>CNN</text>		</g>
		<g id="shape103-140" v:mID="103" v:groupContext="shape" transform="translate(707.999,490.088) rotate(90.1302)">
			<title>Modern Arrow.103</title>
			<v:userDefs>
				<v:ud v:nameU="CtrlAngle" v:prompt="" v:val="VT0(0.78539816339745):32"/>
				<v:ud v:nameU="visVersion" v:prompt="" v:val="VT0(15):26"/>
				<v:ud v:nameU="CtrlAngle" v:prompt="" v:val="VT0(0.78539892539807):32"/>
			</v:userDefs>
			<path d="M0 623.27 L8.5 614.76 L10.51 616.77 L5.43 621.85 L31.18 621.85 L31.18 624.68 L5.43 624.68 L10.51 629.77 L8.5
						 631.77 L0 623.27 Z" class="st18"/>
		</g>
		<g id="shape145-142" v:mID="145" v:groupContext="shape" transform="translate(898.324,440.482) rotate(90)">
			<title>Modern Arrow.145</title>
			<v:userDefs>
				<v:ud v:nameU="CtrlAngle" v:prompt="" v:val="VT0(0.78539816339745):32"/>
				<v:ud v:nameU="visVersion" v:prompt="" v:val="VT0(15):26"/>
				<v:ud v:nameU="CtrlAngle" v:prompt="" v:val="VT0(0.78539892539807):32"/>
			</v:userDefs>
			<path d="M0 623.27 L8.5 614.76 L10.51 616.77 L5.43 621.85 L18.95 621.85 L18.95 624.68 L5.43 624.68 L10.51 629.77 L8.5
						 631.77 L0 623.27 Z" class="st18"/>
		</g>
		<g id="shape148-144" v:mID="148" v:groupContext="shape" transform="translate(225.522,-143.099)">
			<title>Rectangle.148</title>
			<desc>Embedding Layer</desc>
			<v:userDefs>
				<v:ud v:nameU="visVersion" v:val="VT0(15):26"/>
			</v:userDefs>
			<v:textBlock v:margins="rect(4,4,4,4)" v:tabSpace="42.5197"/>
			<v:textRect cx="49.6063" cy="613.345" width="99.22" height="19.8425"/>
			<rect x="0" y="603.424" width="99.2126" height="19.8425" class="st1"/>
			<text x="14.55" y="616.35" class="st4" v:langID="1033"><v:paragraph v:horizAlign="1"/><v:tabList/>Embedding Layer</text>		</g>
		<g id="shape150-147" v:mID="150" v:groupContext="shape" transform="translate(225.522,-103.414)">
			<title>Rectangle.150</title>
			<desc>Label encoding</desc>
			<v:userDefs>
				<v:ud v:nameU="visVersion" v:val="VT0(15):26"/>
			</v:userDefs>
			<v:textBlock v:margins="rect(4,4,4,4)" v:tabSpace="42.5197"/>
			<v:textRect cx="49.6063" cy="613.345" width="99.22" height="19.8425"/>
			<rect x="0" y="603.424" width="99.2126" height="19.8425" class="st1"/>
			<text x="19.1" y="616.35" class="st4" v:langID="1033"><v:paragraph v:horizAlign="1"/><v:tabList/>Label encoding</text>		</g>
		<g id="shape151-150" v:mID="151" v:groupContext="shape" transform="translate(898.395,481.585) rotate(90)">
			<title>Modern Arrow.151</title>
			<v:userDefs>
				<v:ud v:nameU="CtrlAngle" v:prompt="" v:val="VT0(0.78539816339745):32"/>
				<v:ud v:nameU="visVersion" v:prompt="" v:val="VT0(15):26"/>
				<v:ud v:nameU="CtrlAngle" v:prompt="" v:val="VT0(0.78539892539807):32"/>
			</v:userDefs>
			<path d="M0 623.27 L8.5 614.76 L10.51 616.77 L5.43 621.85 L17.6 621.85 L17.6 624.68 L5.43 624.68 L10.51 629.77 L8.5 631.77
						 L0 623.27 Z" class="st18"/>
		</g>
		<g id="shape152-152" v:mID="152" v:groupContext="shape" transform="translate(218.435,-184.426)">
			<title>Sheet.152</title>
			<desc>128-dim vector representation</desc>
			<v:textBlock v:margins="rect(4,4,4,4)" v:tabSpace="42.5197"/>
			<v:textRect cx="56.6929" cy="616.889" width="113.39" height="12.7559"/>
			<rect x="0" y="610.511" width="113.386" height="12.7559" class="st8"/>
			<text x="6.78" y="619.29" class="st19" v:langID="1033"><v:paragraph v:horizAlign="1"/><v:tabList/>128-dim vector representation</text>		</g>
		<g id="shape156-155" v:mID="156" v:groupContext="shape" v:layerMember="0" transform="translate(281.742,-194.123)">
			<title>Dynamic connector.156</title>
			<path d="M-7.09 621.85 L-7.09 615.34" class="st14"/>
		</g>
		<g id="shape157-160" v:mID="157" v:groupContext="shape" transform="translate(70.5609,-80.7372)">
			<title>Circle.157</title>
			<desc>A2</desc>
			<v:userDefs>
				<v:ud v:nameU="visVersion" v:val="VT0(15):26"/>
			</v:userDefs>
			<v:textBlock v:margins="rect(4,4,4,4)" v:tabSpace="42.5197"/>
			<v:textRect cx="8.50394" cy="614.763" width="14.89" height="12.7559"/>
			<path d="M0 614.76 A8.50394 8.50394 0 1 1 17.01 614.76 A8.50394 8.50394 0 0 1 -0 614.76 Z" class="st20"/>
			<text x="5.25" y="616.56" class="st21" v:langID="1033"><v:paragraph v:horizAlign="1"/><v:tabList/>A2</text>		</g>
		<g id="shape206-163" v:mID="206" v:groupContext="shape" transform="translate(45.0491,-50.9734)">
			<title>Circle.206</title>
			<desc>A1</desc>
			<v:userDefs>
				<v:ud v:nameU="visVersion" v:val="VT0(15):26"/>
			</v:userDefs>
			<v:textBlock v:margins="rect(4,4,4,4)" v:tabSpace="42.5197"/>
			<v:textRect cx="8.50394" cy="614.763" width="14.89" height="12.7559"/>
			<path d="M0 614.76 A8.50394 8.50394 0 1 1 17.01 614.76 A8.50394 8.50394 0 0 1 -0 614.76 Z" class="st22"/>
			<text x="5.25" y="617.76" class="st21" v:langID="1033"><v:paragraph v:horizAlign="1"/><v:tabList/>A1</text>		</g>
		<g id="shape207-166" v:mID="207" v:groupContext="shape" transform="translate(70.5609,-25.4616)">
			<title>Circle.207</title>
			<desc>A5</desc>
			<v:userDefs>
				<v:ud v:nameU="visVersion" v:val="VT0(15):26"/>
			</v:userDefs>
			<v:textBlock v:margins="rect(4,4,4,4)" v:tabSpace="42.5197"/>
			<v:textRect cx="8.50394" cy="614.763" width="14.89" height="12.7559"/>
			<path d="M0 614.76 A8.50394 8.50394 0 1 1 17.01 614.76 A8.50394 8.50394 0 0 1 -0 614.76 Z" class="st23"/>
			<text x="5.25" y="617.76" class="st21" v:langID="1033"><v:paragraph v:horizAlign="1"/><v:tabList/>A5</text>		</g>
		<g id="shape208-169" v:mID="208" v:groupContext="shape" transform="translate(101.742,-65.1467)">
			<title>Circle.208</title>
			<desc>A3</desc>
			<v:userDefs>
				<v:ud v:nameU="visVersion" v:val="VT0(15):26"/>
			</v:userDefs>
			<v:textBlock v:margins="rect(4,4,4,4)" v:tabSpace="42.5197"/>
			<v:textRect cx="8.50394" cy="614.763" width="14.89" height="12.7559"/>
			<path d="M0 614.76 A8.50394 8.50394 0 1 1 17.01 614.76 A8.50394 8.50394 0 0 1 -0 614.76 Z" class="st24"/>
			<text x="5.25" y="617.76" class="st21" v:langID="1033"><v:paragraph v:horizAlign="1"/><v:tabList/>A3</text>		</g>
		<g id="shape209-172" v:mID="209" v:groupContext="shape" transform="translate(118.75,-39.6348)">
			<title>Circle.209</title>
			<desc>A4</desc>
			<v:userDefs>
				<v:ud v:nameU="visVersion" v:val="VT0(15):26"/>
			</v:userDefs>
			<v:textBlock v:margins="rect(4,4,4,4)" v:tabSpace="42.5197"/>
			<v:textRect cx="8.50394" cy="614.763" width="14.89" height="12.7559"/>
			<path d="M0 614.76 A8.50394 8.50394 0 1 1 17.01 614.76 A8.50394 8.50394 0 0 1 -0 614.76 Z" class="st25"/>
			<text x="5.25" y="617.76" class="st21" v:langID="1033"><v:paragraph v:horizAlign="1"/><v:tabList/>A4</text>		</g>
		<g id="shape210-175" v:mID="210" v:groupContext="shape" v:layerMember="0" transform="translate(73.3956,-83.2272)">
			<title>Dynamic connector.210</title>
			<path d="M-0.34 623.27 L-13.83 641" class="st26"/>
		</g>
		<g id="shape211-178" v:mID="211" v:groupContext="shape" v:layerMember="0" transform="translate(71.9783,-80.7372)">
			<title>Dynamic connector.211</title>
			<path d="M7.09 623.27 L7.09 661.53" class="st26"/>
		</g>
		<g id="shape212-181" v:mID="212" v:groupContext="shape" v:layerMember="0" transform="translate(104.232,-67.6366)">
			<title>Dynamic connector.212</title>
			<path d="M0 623.27 L-19.15 650.92" class="st26"/>
		</g>
		<g id="shape213-184" v:mID="213" v:groupContext="shape" v:layerMember="0" transform="translate(111.663,-67.9813)">
			<title>Dynamic connector.213</title>
			<path d="M4.6 623.61 L9.58 637.1" class="st26"/>
		</g>
		<g id="shape219-187" v:mID="219" v:groupContext="shape" v:layerMember="0" transform="translate(59.2224,-53.8081)">
			<title>Dynamic connector.219</title>
			<path d="M0.34 623.61 L13.83 637.1" class="st26"/>
		</g>
		<g id="shape221-190" v:mID="221" v:groupContext="shape" transform="translate(144.262,-37.2726)">
			<title>Modern Arrow.221</title>
			<v:userDefs>
				<v:ud v:nameU="CtrlAngle" v:prompt="" v:val="VT0(0.78539816339745):32"/>
				<v:ud v:nameU="visVersion" v:prompt="" v:val="VT0(15):26"/>
				<v:ud v:nameU="CtrlAngle" v:prompt="" v:val="VT0(0.78539892539807):32"/>
			</v:userDefs>
			<path d="M0 623.27 L8.5 614.76 L10.51 616.77 L5.43 621.85 L36.38 621.85 L36.38 624.68 L5.43 624.68 L10.51 629.77 L8.5
						 631.77 L0 623.27 Z" class="st18"/>
		</g>
		<g id="shape222-192" v:mID="222" v:groupContext="shape" transform="translate(898.454,521.27) rotate(90)">
			<title>Modern Arrow.222</title>
			<v:userDefs>
				<v:ud v:nameU="CtrlAngle" v:prompt="" v:val="VT0(0.78539816339745):32"/>
				<v:ud v:nameU="visVersion" v:prompt="" v:val="VT0(15):26"/>
				<v:ud v:nameU="CtrlAngle" v:prompt="" v:val="VT0(0.78539892539807):32"/>
			</v:userDefs>
			<path d="M0 623.27 L8.5 614.76 L10.51 616.77 L5.43 621.85 L19.02 621.85 L19.02 624.68 L5.43 624.68 L10.51 629.77 L8.5
						 631.77 L0 623.27 Z" class="st18"/>
		</g>
		<g id="shape223-194" v:mID="223" v:groupContext="shape" transform="translate(180.64,-30.186)">
			<title>Sheet.223</title>
			<desc>‘O=C(NC1CCNCC1)c1[nH]ncc1NC(=O)c1c(CI)cccc1CI’</desc>
			<v:textBlock v:margins="rect(4,4,4,4)" v:tabSpace="42.5197"/>
			<v:textRect cx="93.5433" cy="616.18" width="187.09" height="14.1732"/>
			<rect x="0" y="609.093" width="187.087" height="14.1732" class="st8"/>
			<text x="9.5" y="618.58" class="st19" v:langID="1033"><v:paragraph v:horizAlign="1"/><v:tabList/>‘O=C(NC1CCNCC1)c1[nH]ncc1NC(=O)c1c(CI)cccc1CI’</text>		</g>
		<g id="shape225-197" v:mID="225" v:groupContext="shape" transform="translate(242.057,-18.375)">
			<title>Sheet.225</title>
			<desc>SMILES</desc>
			<v:textBlock v:margins="rect(4,4,4,4)" v:tabSpace="42.5197"/>
			<v:textRect cx="31.8898" cy="616.889" width="63.78" height="12.7559"/>
			<rect x="0" y="610.511" width="63.7795" height="12.7559" class="st8"/>
			<text x="17.14" y="619.29" class="st27" v:langID="1033"><v:paragraph v:horizAlign="1"/><v:tabList/>SMILES</text>		</g>
		<g id="shape227-200" v:mID="227" v:groupContext="shape" transform="translate(215.364,-67.9813)">
			<title>Sheet.227</title>
			<desc>‘MVSYWDTGVLLCALLSLLLTGSSS’</desc>
			<v:textBlock v:margins="rect(4,4,4,4)" v:tabSpace="42.5197"/>
			<v:textRect cx="59.7638" cy="616.889" width="119.53" height="12.7559"/>
			<rect x="0" y="610.511" width="119.528" height="12.7559" class="st8"/>
			<text x="7.49" y="619.29" class="st19" v:langID="1033"><v:paragraph v:horizAlign="1"/><v:tabList/>‘MVSYWDTGVLLCALLSLLLTGSSS’</text>		</g>
		<g id="shape228-203" v:mID="228" v:groupContext="shape" transform="translate(232.136,-53.8081)">
			<title>Sheet.228</title>
			<desc>Protein Sequence</desc>
			<v:textBlock v:margins="rect(4,4,4,4)" v:tabSpace="42.5197"/>
			<v:textRect cx="43.937" cy="615.755" width="87.88" height="15.0236"/>
			<rect x="0" y="608.243" width="87.874" height="15.0236" class="st8"/>
			<text x="13.34" y="618.15" class="st27" v:langID="1033"><v:paragraph v:horizAlign="1"/><v:tabList/>Protein Sequence</text>		</g>
		<g id="shape245-206" v:mID="245" v:groupContext="shape" transform="translate(189.616,-49.5561)">
			<title>Sheet.245</title>
			<path d="M0 623.27 L170.38 623.27" class="st28"/>
		</g>
	</g>
</svg>
